<?xml version="1.0" encoding="utf-8"?>
<!-- Generator: Adobe Illustrator 19.0.0, SVG Export Plug-In . SVG Version: 6.00 Build 0)  -->
<svg version="1.1" id="Capa_1" xmlns="http://www.w3.org/2000/svg" xmlns:xlink="http://www.w3.org/1999/xlink" x="0px" y="0px"
	 viewBox="-525 1109.6 399.9 350.1" style="enable-background:new -525 1109.6 399.9 350.1;" xml:space="preserve">
<style type="text/css">
	.st0{fill:#65337F;}
	.st1{fill:#8E44AD;}
</style>
<path class="st0" d="M-158.3,1109.6h-333.4c-18.4,0-33.3,14.9-33.3,33.3v217.3c0,18.4,14.9,33.3,33.3,33.3h107.4l-20.4,45
	c-2.1,4.6-1.7,10,1.1,14.3s7.5,6.9,12.6,6.9h132l0,0c8.3,0,15-6.7,15-15c0-2.5-0.6-4.8-1.7-6.9l-20.1-44.2h107.4
	c18.4,0,33.3-14.9,33.3-33.3v-217.4C-125,1124.5-139.9,1109.6-158.3,1109.6z M-155,1360.2c0,1.8-1.5,3.3-3.3,3.3h-333.4
	c-1.8,0-3.3-1.5-3.3-3.3v-217.3c0-1.8,1.5-3.3,3.3-3.3h333.4c1.8,0,3.3,1.5,3.3,3.3L-155,1360.2L-155,1360.2z"/>
<g>
	<g>
		<path class="st1" d="M-221.7,1301.1l-16.6-37.3c-0.8-1.7-2.1-3.2-3.7-4l-25.7-13.4c-0.6-0.3-1.2-0.2-1.7,0.2
			c-2.9,2.1-5.8,3.9-9,5.3l15.3,7.9c3.4,1.8,6.3,4.8,7.8,8.4l18.4,41.4c0.5,1.1,0.8,2.1,1.1,3.2h6.6c2.8,0,5.5-1.4,7-3.7
			C-220.8,1306.7-220.6,1303.7-221.7,1301.1z"/>
		<path class="st1" d="M-386.9,1259.8l15.3-7.9c-3.2-1.3-6.2-3.1-9-5.3c-0.5-0.4-1.2-0.5-1.7-0.2l-25.7,13.4c-1.6,0.9-3,2.3-3.7,4
			l-16.6,37.3c-1.1,2.6-0.9,5.6,0.7,7.8c1.5,2.4,4.1,3.7,7,3.7h6.6c0.3-1.1,0.6-2.1,1.1-3.2l18.4-41.4
			C-393.1,1264.5-390.3,1261.6-386.9,1259.8z"/>
		<path class="st1" d="M-357.4,1244.5c0.6,0,1.1-0.2,1.3-0.4c-0.4-0.4-0.7-0.8-1.1-1.1c-8.1-9.6-12.6-22.2-12.6-35.5
			c0-17.5,4.4-30.7,13.1-39.4c0.1-0.1,0.2-0.2,0.3-0.3c-17.9,0.2-32.4,9.3-32.4,38.5C-388.7,1226.7-374.8,1243.6-357.4,1244.5z"/>
		<path class="st1" d="M-280.3,1207.4c0,13.4-4.5,25.9-12.6,35.5c-0.4,0.4-0.7,0.8-1.1,1.1c0.3,0.3,0.8,0.4,1.3,0.4
			c17.4-1,31.3-17.8,31.3-38.4c0-29.2-14.5-38.3-32.4-38.5c0.1,0.1,0.2,0.2,0.3,0.3C-284.7,1176.7-280.3,1189.9-280.3,1207.4z"/>
		<path class="st1" d="M-325,1250.1c20.2,0,36.5-19.1,36.5-42.7c0-32.7-16.4-42.7-36.5-42.7c-20.2,0-36.5,10-36.5,42.7
			C-361.5,1231-345.2,1250.1-325,1250.1z"/>
		<path class="st1" d="M-262.9,1271.5c-0.9-1.9-2.3-3.4-4.1-4.4l-28.5-14.8c-0.7-0.3-1.4-0.3-1.9,0.2c-8,6.1-17.6,9.4-27.5,9.4
			s-19.4-3.3-27.5-9.4c-0.6-0.4-1.3-0.5-1.9-0.2l-28.5,14.8c-1.8,1-3.4,2.5-4.1,4.4l-18.7,41.4c-1.2,2.9-1.1,6.1,0.7,8.7
			c1.7,2.6,4.6,4.2,7.8,4.2h144.3c3.2,0,6-1.5,7.8-4.2c1.7-2.6,2-5.9,0.7-8.7L-262.9,1271.5z"/>
	</g>
</g>
</svg>
