<?xml version="1.0" encoding="utf-8"?>
<!-- Generator: Adobe Illustrator 19.0.0, SVG Export Plug-In . SVG Version: 6.00 Build 0)  -->
<svg version="1.1" id="Capa_1" xmlns="http://www.w3.org/2000/svg" xmlns:xlink="http://www.w3.org/1999/xlink" x="0px" y="0px"
	 viewBox="-279 105.9 399.9 350.1" style="enable-background:new -279 105.9 399.9 350.1;" xml:space="preserve">
<style type="text/css">
	.st0{fill:#808080;}
</style>
<path class="st0" d="M87.7,105.9h-333.4c-18.4,0-33.3,14.9-33.3,33.3v217.3c0,18.4,14.9,33.3,33.3,33.3h107.4l-20.4,45
	c-2.1,4.6-1.7,10,1.1,14.3s7.5,6.9,12.6,6.9h132l0,0c8.3,0,15-6.7,15-15c0-2.5-0.6-4.8-1.7-6.9l-20.1-44.2H87.6
	c18.4,0,33.3-14.9,33.3-33.3V139.2C121,120.8,106.1,105.9,87.7,105.9z M91,356.5c0,1.8-1.5,3.3-3.3,3.3h-333.4
	c-1.8,0-3.3-1.5-3.3-3.3V139.2c0-1.8,1.5-3.3,3.3-3.3H87.7c1.8,0,3.3,1.5,3.3,3.3L91,356.5L91,356.5z"/>
<path class="st0" d="M22.7,173.9c-6.2-4.7-14.4-7.3-23.2-7.3c-8.7,0-17,2.6-23.2,7.3c-6.4,4.8-9.9,11.3-9.9,18.2
	c0,5.9,2.6,11.6,7.5,16.1v17.5c0,0.7,0.4,1.4,1,1.7c0.3,0.2,0.6,0.2,0.9,0.2c0.4,0,0.7-0.1,1-0.3l16-10.3c2.2,0.3,4.4,0.5,6.6,0.5
	c8.7,0,17-2.6,23.2-7.3c6.4-4.8,9.9-11.3,9.9-18.2C32.6,185.1,29.1,178.7,22.7,173.9z M19,207.5c-5.2,3.9-12.1,6.1-19.5,6.1
	c-1.9,0-3.7-0.1-5.5-0.4l-13.5,8.7c-0.3,0.2-0.6,0.3-0.9,0.3s-0.5-0.1-0.8-0.2c-0.5-0.3-0.8-0.8-0.8-1.4v-14.8
	c-4-3.8-6.3-8.6-6.3-13.5c0-5.8,2.9-11.2,8.3-15.3c5.2-3.9,12.1-6.1,19.5-6.1c7.3,0,14.2,2.2,19.5,6.1c5.4,4,8.3,9.5,8.3,15.3
	C27.3,198.1,24.4,203.4,19,207.5z"/>
<path class="st0" d="M-25.6,279.4c0,0-4.6-4.6-15.5-8c-0.7-5.2-1-11.9-0.1-20.5c0,0,12.3-59.9-23.2-70.1c-4.7-1.4-8.3-0.6-11,1.7
	c-2.9-2.3-6.8-3.1-12-1.7c-38.7,10.2-25.3,70.1-25.3,70.1c0.9,8.5,0.7,15.2-0.1,20.4c-11.1,3.4-15.8,8.1-15.8,8.1l-10,22.5
	c22.6,26.2,53.1,27.4,61.5,27.1c8.4,0.2,38.9-0.9,61.5-27.1L-25.6,279.4z M-77.1,283.8c-3.4-10.5-27.4-13.1-27.4-13.1l18-11.9
	c0,2.9,9.4,3.4,9.4,3.4s9.4-0.5,9.4-3.4l18,11.9C-49.7,270.7-73.7,273.3-77.1,283.8z M-49.9,232.6c-1,1.9-1,1.5-2.3,1.2
	c0,0-11,24.5-24.3,24.5c0,0-11.2,3.7-24.9-24.1c0,0-4.8-1.5-4.8-7.9c0-6.4,2.3-6,3.9-6s-1.2-15.2,10.9-16.2
	c12.1-1,14.8,10,37.5,18.5c0,0,3.1-4.2,5-0.8C-47,225.1-48.9,230.7-49.9,232.6z"/>
</svg>
