<?xml version="1.0" encoding="utf-8"?>
<!-- Generator: Adobe Illustrator 19.0.0, SVG Export Plug-In . SVG Version: 6.00 Build 0)  -->
<svg version="1.1" id="Capa_1" xmlns="http://www.w3.org/2000/svg" xmlns:xlink="http://www.w3.org/1999/xlink" x="0px" y="0px"
	 viewBox="-525 1109.6 399.9 350.1" style="enable-background:new -525 1109.6 399.9 350.1;" xml:space="preserve">
<style type="text/css">
	.st0{fill:#444444;}
</style>
<path class="st0" d="M-158.3,1109.6h-333.4c-18.4,0-33.3,14.9-33.3,33.3v217.3c0,18.4,14.9,33.3,33.3,33.3h107.4l-20.4,45
	c-2.1,4.6-1.7,10,1.1,14.3s7.5,6.9,12.6,6.9h132l0,0c8.3,0,15-6.7,15-15c0-2.5-0.6-4.8-1.7-6.9l-20.1-44.2h107.4
	c18.4,0,33.3-14.9,33.3-33.3v-217.4C-125,1124.5-139.9,1109.6-158.3,1109.6z M-155,1360.2c0,1.8-1.5,3.3-3.3,3.3h-333.4
	c-1.8,0-3.3-1.5-3.3-3.3v-217.3c0-1.8,1.5-3.3,3.3-3.3h333.4c1.8,0,3.3,1.5,3.3,3.3L-155,1360.2L-155,1360.2z"/>
<g>
	<path class="st0" d="M-278.8,1181c-1.1-1.1-2.9-0.9-4.2,0.3l-16.3,16.3c-1.2,1.2-1.4,3.1-0.3,4.2l23.1,23.1c0.5,0.5,1.3,0.8,2,0.7
		c0.8-0.1,1.5-0.4,2.2-1l16.3-16.3c1.2-1.2,1.4-3.1,0.3-4.2L-278.8,1181z"/>
	<path class="st0" d="M-378.7,1282.2c-0.7-0.7-1.7-0.9-2.8-0.5c-1,0.4-1.9,1.2-2.3,2.3l-11.1,32.9c-0.4,1-0.1,2.1,0.5,2.8
		c0.5,0.5,1.2,0.8,2,0.7c0.2,0,0.5-0.1,0.8-0.2l32.9-11.1c1-0.4,1.9-1.2,2.3-2.3c0.4-1,0.2-2.1-0.5-2.8L-378.7,1282.2z"/>
	<path class="st0" d="M-295.5,1266.8c1.5-0.7,2.5-2,2.9-3.5c0.4-1.6,0-3.2-1.1-4.4c-1.9-2.3-3.9-4.6-6-6.9l18.1-18.1
		c0.6-0.6,1-1.4,1-2.2c0.1-0.8-0.2-1.5-0.7-2l-23.1-23.1c-1.1-1.1-2.9-0.9-4.2,0.3l-17.6,17.7c-11.8-11.2-23.7-21.2-34.2-28.7
		c-7.4-5.3-20.9-14.2-28.4-14.3c-1.4,0-2.7,0.5-3.7,1.5s-1.5,2.3-1.5,3.7c0,5.1,4.5,14.3,12.6,26c7.7,11.1,18.3,23.8,30.4,36.6
		l-23,23c-1.2,1.2-1.4,3.1-0.3,4.2l23.1,23.1c0.5,0.5,1.3,0.8,2,0.7c0.8-0.1,1.5-0.4,2.2-1l23.4-23.4c2,1.8,4.1,3.6,6.1,5.3
		c0.9,0.8,2.1,1.2,3.3,1.2c0.3,0,0.5,0,0.8-0.1c1.5-0.2,2.8-1.1,3.5-2.4c1.4-2.2,3.1-4.5,5.3-6.6
		C-301.7,1270.4-298.7,1268.3-295.5,1266.8z"/>
	<path class="st0" d="M-282.7,1271.1c-5.9,0-11.6,2.5-16.4,7.3c-5.7,5.7-8.3,11.8-7.3,17.4c1,5.6,5.4,10.6,12.2,13.8
		c5.8,2.7,11.1,3.5,15.8,4.3c4.9,0.8,9.6,1.5,13.7,4.3c0.9,0.6,1.9,0.9,2.9,0.9c0.7,0,1.4-0.1,2.1-0.4c1.6-0.7,2.7-2.2,3-4
		c1.8-13.2-0.8-25.1-7.2-33.5C-268.8,1274.8-275.6,1271.1-282.7,1271.1z"/>
</g>
</svg>
