<?xml version="1.0" encoding="utf-8"?>
<!-- Generator: Adobe Illustrator 19.2.1, SVG Export Plug-In . SVG Version: 6.00 Build 0)  -->
<!DOCTYPE svg PUBLIC "-//W3C//DTD SVG 1.1//EN" "http://www.w3.org/Graphics/SVG/1.1/DTD/svg11.dtd">
<svg version="1.1" id="Capa_1" xmlns="http://www.w3.org/2000/svg" xmlns:xlink="http://www.w3.org/1999/xlink" x="0px" y="0px"
	 viewBox="0 0 399.9 350.1" style="enable-background:new 0 0 399.9 350.1;" xml:space="preserve">
<style type="text/css">
	.st0{fill:#808080;}
</style>
<path class="st0" d="M366.7,0H33.3C14.9,0,0,14.9,0,33.3v217.3c0,18.4,14.9,33.3,33.3,33.3h107.4l-20.4,45c-2.1,4.6-1.7,10,1.1,14.3
	s7.5,6.9,12.6,6.9h132l0,0c8.3,0,15-6.7,15-15c0-2.5-0.6-4.8-1.7-6.9L259.2,284h107.4c18.4,0,33.3-14.9,33.3-33.3V33.3
	C400,14.9,385.1,0,366.7,0z M370,250.6c0,1.8-1.5,3.3-3.3,3.3H33.3c-1.8,0-3.3-1.5-3.3-3.3V33.3c0-1.8,1.5-3.3,3.3-3.3h333.4
	c1.8,0,3.3,1.5,3.3,3.3V250.6L370,250.6z"/>
<g>
	<g>
		<path class="st0" d="M233.6,85.2c-9.4-6.8-21.2-10.1-35.3-10.1c-10.8,0-19.9,2.4-27.3,7.1c-11.7,7.5-18,20.1-18.7,38h27.2
			c0-5.2,1.5-10.2,4.6-15c3-4.8,8.2-7.2,15.4-7.2c7.4,0,12.5,2,15.3,5.9c2.8,3.9,4.2,8.3,4.2,13c0,4.1-2.1,7.9-4.6,11.4
			c-1.4,2-3.2,3.9-5.4,5.5c0,0-14.7,9.5-21.2,17.1c-3.8,4.4-4.1,11-4.4,20.5c0,0.7,0.2,2.1,2.6,2.1s19.1,0,21.2,0s2.5-1.6,2.6-2.2
			c0.1-3.5,0.5-5.2,1.2-7.2c1.2-3.8,4.4-7,8.1-9.9l7.5-5.2c6.8-5.3,12.2-9.6,14.5-13c4.1-5.6,6.9-12.4,6.9-20.6
			C247.7,101.9,243,91.9,233.6,85.2z M197.8,189.5c-9.4-0.3-17.1,6.2-17.4,16.4c-0.3,10.2,7.1,16.9,16.4,17.2
			c9.8,0.3,17.3-6,17.6-16.1C214.8,196.8,207.6,189.8,197.8,189.5z"/>
	</g>
</g>
</svg>
