<?xml version="1.0" encoding="utf-8"?>
<!-- Generator: Adobe Illustrator 19.0.0, SVG Export Plug-In . SVG Version: 6.00 Build 0)  -->
<svg version="1.1" id="Layer_1" xmlns="http://www.w3.org/2000/svg" xmlns:xlink="http://www.w3.org/1999/xlink" x="0px" y="0px"
	 viewBox="-351 182.4 256.8 196.6" style="enable-background:new -351 182.4 256.8 196.6;" xml:space="preserve">
<style type="text/css">
	.st0{fill:#333333;}
</style>
<g id="XMLID_2_">
	<g id="XMLID_4_">
		<polygon id="XMLID_68_" class="st0" points="-172.3,217.4 -171.2,182.8 -170.5,219 		"/>
		<path id="XMLID_63_" class="st0" d="M-205,230.9l0.5-5.7l1.6-0.4l29.7-8.3l1,0.9l1.8,1.7l0.7,0.7l-0.2,15v3.3v1.8l-0.4,41.2
			l-0.1,5.4l-0.5,44.9c13.1,6.1,25.4,12.3,36.3,18.2c5.7,3.1,10.9,6.1,15.7,8.9c13.7,8.3,22.9,15.5,24.5,20.4c-0.7-1.6-3-4.5-6-6.9
			c-12.1-9.6-39.1-22.5-70.5-35.7v2.9c31.7,12.8,58.3,25.2,70,33.4c3.1,2.5,5.6,4.4,6.6,6.3c0,0,0,0,0,0.1
			c-0.3-0.3-9.5-9.8-73.5-32.2c-1-0.4-2.1-0.7-3.1-1.1l-0.4,18.1l-14.7,14.9l1.7-37.9c-5.5-1.9-11.3-3.8-17.1-5.8l-2.1,42.6
			l-12.2-18.9l2.3-27.7c-63.1-20.8-137.3-43.8-137.3-43.8l16.8-8c0,0,60.9,20.7,121.3,43.5c3.9,1.5,7.8,3,11.7,4.4
			c5.8,2.2,11.5,4.4,17.1,6.6l0.2-3.1c-5.6-2.3-11.3-4.6-17.1-6.9l-11.5-4.5c-58.9-22.9-117.3-42.7-117.3-42.7l14.5-6L-205,230.9z
			 M-206.3,246.2l-80.3,35.1c19.6,7.9,46.9,19.2,74.7,31.4L-206.3,246.2z M-205.2,233.5L-309,272.3c4.1,1.6,10,4,17.2,6.9L-206,244
			L-205.2,233.5z M-180.6,260.7l0.6-12.5c0,0-1.5-2.3-4.7-2.3c-0.8,0-1.7,0.1-2.8,0.5c-0.5,0.2-1.1,0.5-1.7,0.8
			c-0.6,0.3-1.2,0.7-1.9,1.2c-7.5,5.5-6.8,11-6.8,11l-2.8,58.2c5.7,2.5,11.4,5.1,17,7.7l2.8-60L-180.6,260.7z"/>
		<path id="XMLID_9_" class="st0" d="M-169.7,234.7c34.4,92.5,50.9,118.9,52.4,121.3c-23.3-33.6-52.7-116.3-52.7-116.3v-1.8v-3.3
			h0.3V234.7z"/>
		<path id="XMLID_8_" class="st0" d="M-170.4,280.9c12.9,25.3,29.6,57,37.5,66.6c-12.4-14.3-26.5-39.7-37.5-61.3V280.9z"/>
		<path id="XMLID_6_" class="st0" d="M-180.6,260.7l-0.2,4.6c-5.2-10.8-8.4-18.1-8.4-18.1c0.6-0.3,1.2-0.6,1.7-0.8
			C-187.4,246.5-184.8,252.1-180.6,260.7z"/>
		<polygon id="XMLID_5_" class="st0" points="-201.4,185 -202.9,224.8 -204.5,225.2 		"/>
	</g>
	<g id="XMLID_3_">
	</g>
</g>
</svg>
