<?xml version="1.0" encoding="utf-8"?>
<!-- Generator: Adobe Illustrator 19.2.1, SVG Export Plug-In . SVG Version: 6.00 Build 0)  -->
<!DOCTYPE svg PUBLIC "-//W3C//DTD SVG 1.1//EN" "http://www.w3.org/Graphics/SVG/1.1/DTD/svg11.dtd">
<svg version="1.1" id="Capa_1" xmlns="http://www.w3.org/2000/svg" xmlns:xlink="http://www.w3.org/1999/xlink" x="0px" y="0px"
	 viewBox="0 0 399.9 350.1" style="enable-background:new 0 0 399.9 350.1;" xml:space="preserve">
<style type="text/css">
	.st0{fill:#808080;}
</style>
<path class="st0" d="M366.7,0H33.3C14.9,0,0,14.9,0,33.3v217.3c0,18.4,14.9,33.3,33.3,33.3h107.4l-20.4,45c-2.1,4.6-1.7,10,1.1,14.3
	s7.5,6.9,12.6,6.9h132l0,0c8.3,0,15-6.7,15-15c0-2.5-0.6-4.8-1.7-6.9L259.2,284h107.4c18.4,0,33.3-14.9,33.3-33.3V33.3
	C400,14.9,385.1,0,366.7,0z M370,250.6c0,1.8-1.5,3.3-3.3,3.3H33.3c-1.8,0-3.3-1.5-3.3-3.3V33.3c0-1.8,1.5-3.3,3.3-3.3h333.4
	c1.8,0,3.3,1.5,3.3,3.3V250.6L370,250.6z"/>
<path class="st0" d="M234.4,129.5v-14.9c-7.6-2.7-12.4-3.5-14.8-9.3c-2.4-5.9,0.5-9.8,3.9-17.1L213,77.6c-7.2,3.4-11.2,6.3-17.1,3.9
	c-5.9-2.4-6.6-7.3-9.3-14.8h-14.9c-2.7,7.5-3.4,12.4-9.3,14.8h0c-5.9,2.4-9.8-0.5-17.1-3.9l-10.5,10.5c3.4,7.2,6.3,11.2,3.9,17.1
	c-2.4,5.9-7.3,6.6-14.8,9.3v14.9c7.5,2.7,12.4,3.5,14.8,9.3c2.4,5.9-0.5,10-3.9,17.1l10.5,10.5c7.2-3.4,11.2-6.3,17.1-3.9h0
	c5.9,2.4,6.6,7.3,9.3,14.8h14.9c2.7-7.5,3.4-12.4,9.3-14.8h0c5.8-2.4,9.8,0.5,17,3.9l10.5-10.5c-3.4-7.2-6.3-11.2-3.9-17.1
	C222,132.9,226.9,132.1,234.4,129.5z M179.1,140.4c-10.2,0-18.4-8.3-18.4-18.4s8.3-18.4,18.4-18.4s18.4,8.3,18.4,18.4
	S189.3,140.4,179.1,140.4z M280,167.8v-7c-3.6-1.3-5.8-1.6-7-4.4c-1.1-2.8,0.2-4.6,1.8-8l-5-5c-3.4,1.6-5.3,3-8,1.8s-3.1-3.4-4.4-7
	h-7c-1.3,3.5-1.6,5.8-4.4,7c-2.8,1.1-4.6-0.2-8-1.8l-5,5c1.6,3.4,3,5.3,1.8,8c-1.1,2.8-3.4,3.1-7,4.4v7c3.5,1.3,5.8,1.6,7,4.4
	c1.2,2.8-0.2,4.7-1.8,8l5,5c3.4-1.6,5.3-3,8-1.8c2.8,1.1,3.1,3.4,4.4,7h7c1.3-3.5,1.6-5.8,4.4-7h0c2.7-1.1,4.6,0.2,8,1.8l5-5
	c-1.6-3.4-3-5.3-1.8-8C274.1,169.4,276.4,169.1,280,167.8z M253.9,173c-4.8,0-8.7-3.9-8.7-8.7s3.9-8.7,8.7-8.7
	c4.8,0,8.7,3.9,8.7,8.7S258.7,173,253.9,173z M227.9,192.9v-5.3c-2.7-1-4.4-1.2-5.2-3.3c-0.9-2.1,0.2-3.5,1.4-6l-3.7-3.7
	c-2.5,1.2-3.9,2.2-6,1.4c-2.1-0.9-2.3-2.6-3.3-5.2h-5.3c-0.9,2.7-1.2,4.4-3.3,5.2c-2.1,0.9-3.5-0.2-6-1.4l-3.7,3.7
	c1.2,2.6,2.2,4,1.4,6c-0.9,2.1-2.6,2.3-5.2,3.3v5.3c2.7,0.9,4.4,1.2,5.2,3.3c0.9,2.1-0.2,3.5-1.4,6l3.7,3.7c2.5-1.2,4-2.2,6-1.4
	c2.1,0.9,2.3,2.6,3.3,5.2h5.3c0.9-2.7,1.2-4.4,3.3-5.2h0c2-0.9,3.4,0.2,6,1.4l3.7-3.7c-1.2-2.5-2.2-4-1.4-6
	C223.5,194.2,225.3,193.9,227.9,192.9z M208.4,196.8c-3.6,0-6.5-2.9-6.5-6.5s2.9-6.5,6.5-6.5s6.5,2.9,6.5,6.5S212,196.8,208.4,196.8
	z"/>
</svg>
