<?xml version="1.0" encoding="utf-8"?>
<!-- Generator: Adobe Illustrator 19.0.0, SVG Export Plug-In . SVG Version: 6.00 Build 0)  -->
<svg version="1.1" id="Layer_1" xmlns="http://www.w3.org/2000/svg" xmlns:xlink="http://www.w3.org/1999/xlink" x="0px" y="0px"
	 viewBox="-735 1553.4 399.9 350.1" style="enable-background:new -735 1553.4 399.9 350.1;" xml:space="preserve">
<style type="text/css">
	.st0{fill:#444444;}
</style>
<g id="Capa_1">
	<path class="st0" d="M-368.3,1553.4h-333.4c-18.4,0-33.3,14.9-33.3,33.3V1804c0,18.4,14.9,33.3,33.3,33.3h107.4l-20.4,45
		c-2.1,4.6-1.7,10,1.1,14.3c2.8,4.3,7.5,6.9,12.6,6.9h132l0,0c8.3,0,15-6.7,15-15c0-2.5-0.6-4.8-1.7-6.9l-20.1-44.2h107.4
		c18.4,0,33.3-14.9,33.3-33.3v-217.4C-335,1568.3-349.9,1553.4-368.3,1553.4z M-365,1804c0,1.8-1.5,3.3-3.3,3.3h-333.4
		c-1.8,0-3.3-1.5-3.3-3.3v-217.3c0-1.8,1.5-3.3,3.3-3.3h333.4c1.8,0,3.3,1.5,3.3,3.3L-365,1804L-365,1804z"/>
	<g>
		<g>
			<path class="st0" d="M-431.7,1744.9l-16.6-37.3c-0.8-1.7-2.1-3.2-3.7-4l-25.7-13.4c-0.6-0.3-1.2-0.2-1.7,0.2
				c-2.9,2.1-5.8,3.9-9,5.3l15.3,7.9c3.4,1.8,6.3,4.8,7.8,8.4l18.4,41.4c0.5,1.1,0.8,2.1,1.1,3.2h6.6c2.8,0,5.5-1.4,7-3.7
				C-430.8,1750.5-430.6,1747.5-431.7,1744.9z"/>
			<path class="st0" d="M-596.9,1703.6l15.3-7.9c-3.2-1.3-6.2-3.1-9-5.3c-0.5-0.4-1.2-0.5-1.7-0.2l-25.7,13.4c-1.6,0.9-3,2.3-3.7,4
				l-16.6,37.3c-1.1,2.6-0.9,5.6,0.7,7.8c1.5,2.4,4.1,3.7,7,3.7h6.6c0.3-1.1,0.6-2.1,1.1-3.2l18.4-41.4
				C-603.1,1708.3-600.3,1705.4-596.9,1703.6z"/>
			<path class="st0" d="M-567.4,1688.3c0.6,0,1.1-0.2,1.3-0.4c-0.4-0.4-0.7-0.8-1.1-1.1c-8.1-9.6-12.6-22.2-12.6-35.5
				c0-17.5,4.4-30.7,13.1-39.4c0.1-0.1,0.2-0.2,0.3-0.3c-17.9,0.2-32.4,9.3-32.4,38.5C-598.7,1670.5-584.8,1687.4-567.4,1688.3z"/>
			<path class="st0" d="M-490.3,1651.2c0,13.4-4.5,25.9-12.6,35.5c-0.4,0.4-0.7,0.8-1.1,1.1c0.3,0.3,0.8,0.4,1.3,0.4
				c17.4-1,31.3-17.8,31.3-38.4c0-29.2-14.5-38.3-32.4-38.5c0.1,0.1,0.2,0.2,0.3,0.3C-494.7,1620.5-490.3,1633.7-490.3,1651.2z"/>
			<path class="st0" d="M-535,1693.9c20.2,0,36.5-19.1,36.5-42.7c0-32.7-16.4-42.7-36.5-42.7c-20.2,0-36.5,10-36.5,42.7
				C-571.5,1674.8-555.2,1693.9-535,1693.9z"/>
			<path class="st0" d="M-472.9,1715.3c-0.9-1.9-2.3-3.4-4.1-4.4l-28.5-14.8c-0.7-0.3-1.4-0.3-1.9,0.2c-8,6.1-17.6,9.4-27.5,9.4
				c-9.9,0-19.4-3.3-27.5-9.4c-0.6-0.4-1.3-0.5-1.9-0.2l-28.5,14.8c-1.8,1-3.4,2.5-4.1,4.4l-18.7,41.4c-1.2,2.9-1.1,6.1,0.7,8.7
				c1.7,2.6,4.6,4.2,7.8,4.2h144.3c3.2,0,6-1.5,7.8-4.2c1.7-2.6,2-5.9,0.7-8.7L-472.9,1715.3z"/>
		</g>
	</g>
</g>
<g id="Layer_2">
</g>
</svg>
